<?xml version="1.0" encoding="UTF-8" standalone="no"?>
<svg
   version="1.1"
   viewBox="180.0 180.0 600.0 200.0"
   fill="none"
   stroke="none"
   stroke-linecap="square"
   stroke-miterlimit="10"
   id="svg275"
   sodipodi:docname="pc-surf.svg"
   inkscape:version="1.1.2 (0a00cf5339, 2022-02-04)"
   xmlns:inkscape="http://www.inkscape.org/namespaces/inkscape"
   xmlns:sodipodi="http://sodipodi.sourceforge.net/DTD/sodipodi-0.dtd"
   xmlns:xlink="http://www.w3.org/1999/xlink"
   xmlns="http://www.w3.org/2000/svg"
   xmlns:svg="http://www.w3.org/2000/svg">
  <defs
     id="defs279">
    <clipPath
       clipPathUnits="userSpaceOnUse"
       id="clipPath1227">
      <use
         x="0"
         y="0"
         xlink:href="#g1223"
         id="use1229" />
    </clipPath>
  </defs>
  <sodipodi:namedview
     id="namedview277"
     pagecolor="#ffffff"
     bordercolor="#666666"
     borderopacity="1.0"
     inkscape:pageshadow="2"
     inkscape:pageopacity="0.0"
     inkscape:pagecheckerboard="0"
     showgrid="false"
     inkscape:zoom="0.90509668"
     inkscape:cx="391.11844"
     inkscape:cy="411.00582"
     inkscape:window-width="1920"
     inkscape:window-height="1027"
     inkscape:window-x="0"
     inkscape:window-y="25"
     inkscape:window-maximized="1"
     inkscape:current-layer="svg275" />
  <clipPath
     id="g29e0fafa150_0_5.0">
    <path
       d="m0 0l960.0 0l0 540.0l-960.0 0l0 -540.0z"
       clip-rule="nonzero"
       id="path2" />
  </clipPath>
  <g
     clip-path="url(#g29e0fafa150_0_5.0)"
     id="g273">
    <path
       fill="#ffffff"
       d="M 0,0 H 960 V 540 H 0 Z"
       fill-rule="evenodd"
       id="path5" />
    <path
       fill="#000000"
       fill-opacity="0"
       d="m 351.86353,175.09186 h 46.01575 v 57.60631 h -46.01575 z"
       fill-rule="evenodd"
       id="path7" />
    <path
       fill="#595959"
       d="m 372.05103,192.80374 q 0,-0.25 -0.0937,-0.375 -0.0937,-0.125 -0.29687,-0.17188 -0.1875,-0.0625 -0.53125,-0.26562 -0.32813,-0.20313 -0.32813,-0.67188 0,-0.9375 0.9375,-0.9375 h 5.34375 q 0.90625,0 0.90625,0.9375 0,0.75 -0.89062,0.96875 l -0.75,0.10938 q -1.3125,0.23437 -2.9375,2.45312 l -1.79688,2.34375 q 4.9375,7.60938 5.40625,7.90625 1.26563,0.32813 1.26563,1.07813 0,0.95312 -0.90625,0.95312 h -6.89063 q -0.90625,0 -0.90625,-0.9375 0,-0.95312 0.90625,-0.95312 1.23438,0.17187 1.0625,0.17187 0,-0.64062 -2.29687,-3.90625 l -0.0937,-0.125 -2.125,2.40625 q -0.375,0.4375 -0.375,0.85938 0,0.26562 0.14062,0.4375 0.14063,0.15625 0.6875,0.15625 0.54688,0 0.54688,0.9375 0,0.95312 -0.90625,0.95312 h -4.75 q -0.89063,0 -0.89063,-0.95312 0,-0.51563 0.3125,-0.6875 0.32813,-0.1875 0.90625,-0.32813 0.53125,-0.14062 2.67188,-2.5625 l 2.60937,-2.96875 -4.10937,-6.09375 q -0.625,-0.90625 -0.84375,-1.04687 l -0.67188,-0.21875 q -0.78125,-0.29688 -0.78125,-0.95313 0,-0.9375 0.89063,-0.9375 h 6.67187 q 0.90625,0 0.90625,0.9375 0,0.95313 -0.90625,0.95313 -0.84375,-0.14063 -0.70312,-0.14063 0,0.375 1.98437,3.29688 l 1.28125,-1.67188 q 0.34375,-0.48437 0.34375,-0.95312 z m 1.82813,-0.84375 -0.25,0.0625 q 0.28125,-0.0312 0.0312,0.0937 0,-0.375 0.21875,-0.15625 z m 1.75,13.73437 q -0.34375,0.28125 -1.79688,-1.84375 -1.4375,-2.125 -2.89062,-4.26562 -1.4375,-2.15625 -1.04688,-2.3125 l -2.14062,-2.46875 q -1.20313,-1.95313 -1.20313,-2.67188 0,-0.29687 0.39063,-0.23437 l -2.14063,0.10937 q 0.21875,-0.14062 0.70313,0.5625 l 6.5,9.73438 q 1.40625,2.25 1.40625,3.10937 0,0.20313 -0.35938,0.1875 z m -10.5625,-0.25 q -0.25,0 0.0156,-0.15625 -0.0156,0.42188 -0.21875,0.21875 z"
       fill-rule="nonzero"
       id="path9" />
    <path
       fill="#c9daf8"
       d="m 199.29659,333.0315 v 0 c 0,-4.80096 3.89195,-8.6929 8.69292,-8.6929 v 0 c 2.30549,0 4.51658,0.91586 6.14682,2.54608 1.63023,1.63025 2.54609,3.84131 2.54609,6.14682 v 0 c 0,4.80096 -3.89195,8.6929 -8.69291,8.6929 v 0 c -4.80097,0 -8.69292,-3.89194 -8.69292,-8.6929 z"
       fill-rule="evenodd"
       id="path11" />
    <path
       stroke="#595959"
       stroke-width="1"
       stroke-linejoin="round"
       stroke-linecap="butt"
       d="m 199.29659,333.0315 v 0 c 0,-4.80096 3.89195,-8.6929 8.69292,-8.6929 v 0 c 2.30549,0 4.51658,0.91586 6.14682,2.54608 1.63023,1.63025 2.54609,3.84131 2.54609,6.14682 v 0 c 0,4.80096 -3.89195,8.6929 -8.69291,8.6929 v 0 c -4.80097,0 -8.69292,-3.89194 -8.69292,-8.6929 z"
       fill-rule="evenodd"
       id="path13" />
    <path
       fill="#c9daf8"
       d="m 242.88715,333.0315 v 0 c 0,-4.80096 3.89194,-8.6929 8.6929,-8.6929 v 0 c 2.30551,0 4.51657,0.91586 6.14682,2.54608 1.63025,1.63025 2.54611,3.84131 2.54611,6.14682 v 0 c 0,4.80096 -3.89196,8.6929 -8.69293,8.6929 v 0 c -4.80096,0 -8.6929,-3.89194 -8.6929,-8.6929 z"
       fill-rule="evenodd"
       id="path15" />
    <path
       stroke="#595959"
       stroke-width="1"
       stroke-linejoin="round"
       stroke-linecap="butt"
       d="m 242.88715,333.0315 v 0 c 0,-4.80096 3.89194,-8.6929 8.6929,-8.6929 v 0 c 2.30551,0 4.51657,0.91586 6.14682,2.54608 1.63025,1.63025 2.54611,3.84131 2.54611,6.14682 v 0 c 0,4.80096 -3.89196,8.6929 -8.69293,8.6929 v 0 c -4.80096,0 -8.6929,-3.89194 -8.6929,-8.6929 z"
       fill-rule="evenodd"
       id="path17" />
    <path
       fill="#c9daf8"
       d="m 221.09186,333.0315 v 0 c 0,-4.80096 3.89195,-8.6929 8.69292,-8.6929 v 0 c 2.30551,0 4.51658,0.91586 6.14682,2.54608 1.63023,1.63025 2.54609,3.84131 2.54609,6.14682 v 0 c 0,4.80096 -3.89195,8.6929 -8.69291,8.6929 v 0 c -4.80097,0 -8.69292,-3.89194 -8.69292,-8.6929 z"
       fill-rule="evenodd"
       id="path19" />
    <path
       stroke="#595959"
       stroke-width="1"
       stroke-linejoin="round"
       stroke-linecap="butt"
       d="m 221.09186,333.0315 v 0 c 0,-4.80096 3.89195,-8.6929 8.69292,-8.6929 v 0 c 2.30551,0 4.51658,0.91586 6.14682,2.54608 1.63023,1.63025 2.54609,3.84131 2.54609,6.14682 v 0 c 0,4.80096 -3.89195,8.6929 -8.69291,8.6929 v 0 c -4.80097,0 -8.69292,-3.89194 -8.69292,-8.6929 z"
       fill-rule="evenodd"
       id="path21" />
    <path
       fill="#c9daf8"
       d="m 264.6824,333.0315 v 0 c 0,-4.80096 3.89197,-8.6929 8.69293,-8.6929 v 0 c 2.30551,0 4.51657,0.91586 6.14682,2.54608 1.63022,1.63025 2.54608,3.84131 2.54608,6.14682 v 0 c 0,4.80096 -3.89193,8.6929 -8.6929,8.6929 v 0 c -4.80096,0 -8.69293,-3.89194 -8.69293,-8.6929 z"
       fill-rule="evenodd"
       id="path23" />
    <path
       stroke="#595959"
       stroke-width="1"
       stroke-linejoin="round"
       stroke-linecap="butt"
       d="m 264.6824,333.0315 v 0 c 0,-4.80096 3.89197,-8.6929 8.69293,-8.6929 v 0 c 2.30551,0 4.51657,0.91586 6.14682,2.54608 1.63022,1.63025 2.54608,3.84131 2.54608,6.14682 v 0 c 0,4.80096 -3.89193,8.6929 -8.6929,8.6929 v 0 c -4.80096,0 -8.69293,-3.89194 -8.69293,-8.6929 z"
       fill-rule="evenodd"
       id="path25" />
    <path
       fill="#c9daf8"
       d="m 330.06824,282.8058 v 0 c 0,-4.80096 3.89197,-8.69293 8.69293,-8.69293 v 0 c 2.30548,0 4.51657,0.91586 6.14679,2.54611 1.63025,1.63022 2.54611,3.84131 2.54611,6.14682 v 0 c 0,4.80096 -3.89196,8.6929 -8.6929,8.6929 v 0 c -4.80096,0 -8.69293,-3.89194 -8.69293,-8.6929 z"
       fill-rule="evenodd"
       id="path27" />
    <path
       stroke="#595959"
       stroke-width="1"
       stroke-linejoin="round"
       stroke-linecap="butt"
       d="m 330.06824,282.8058 v 0 c 0,-4.80096 3.89197,-8.69293 8.69293,-8.69293 v 0 c 2.30548,0 4.51657,0.91586 6.14679,2.54611 1.63025,1.63022 2.54611,3.84131 2.54611,6.14682 v 0 c 0,4.80096 -3.89196,8.6929 -8.6929,8.6929 v 0 c -4.80096,0 -8.69293,-3.89194 -8.69293,-8.6929 z"
       fill-rule="evenodd"
       id="path29" />
    <path
       fill="#c9daf8"
       d="m 330.06824,257.6929 v 0 c 0,-4.80095 3.89197,-8.6929 8.69293,-8.6929 v 0 c 2.30548,0 4.51657,0.91586 6.14679,2.54609 1.63025,1.63024 2.54611,3.84131 2.54611,6.14681 v 0 c 0,4.80096 -3.89196,8.69293 -8.6929,8.69293 v 0 c -4.80096,0 -8.69293,-3.89197 -8.69293,-8.69293 z"
       fill-rule="evenodd"
       id="path31" />
    <path
       stroke="#595959"
       stroke-width="1"
       stroke-linejoin="round"
       stroke-linecap="butt"
       d="m 330.06824,257.6929 v 0 c 0,-4.80095 3.89197,-8.6929 8.69293,-8.6929 v 0 c 2.30548,0 4.51657,0.91586 6.14679,2.54609 1.63025,1.63024 2.54611,3.84131 2.54611,6.14681 v 0 c 0,4.80096 -3.89196,8.69293 -8.6929,8.69293 v 0 c -4.80096,0 -8.69293,-3.89197 -8.69293,-8.69293 z"
       fill-rule="evenodd"
       id="path33" />
    <path
       fill="#c9daf8"
       d="m 330.06824,232.58005 v 0 c 0,-4.80096 3.89197,-8.6929 8.69293,-8.6929 v 0 c 2.30548,0 4.51657,0.91585 6.14679,2.54608 1.63025,1.63025 2.54611,3.84132 2.54611,6.14682 v 0 c 0,4.80096 -3.89196,8.69292 -8.6929,8.69292 v 0 c -4.80096,0 -8.69293,-3.89196 -8.69293,-8.69292 z"
       fill-rule="evenodd"
       id="path35" />
    <path
       stroke="#595959"
       stroke-width="1"
       stroke-linejoin="round"
       stroke-linecap="butt"
       d="m 330.06824,232.58005 v 0 c 0,-4.80096 3.89197,-8.6929 8.69293,-8.6929 v 0 c 2.30548,0 4.51657,0.91585 6.14679,2.54608 1.63025,1.63025 2.54611,3.84132 2.54611,6.14682 v 0 c 0,4.80096 -3.89196,8.69292 -8.6929,8.69292 v 0 c -4.80096,0 -8.69293,-3.89196 -8.69293,-8.69292 z"
       fill-rule="evenodd"
       id="path37" />
    <path
       fill="#c9daf8"
       d="m 351.86353,299.34384 v 0 c 0,-4.80096 3.89194,-8.69293 8.6929,-8.69293 v 0 c 2.30551,0 4.51657,0.91586 6.14682,2.54611 1.63025,1.63022 2.54608,3.84131 2.54608,6.14682 v 0 c 0,4.80096 -3.89193,8.6929 -8.6929,8.6929 v 0 c -4.80096,0 -8.6929,-3.89194 -8.6929,-8.6929 z"
       fill-rule="evenodd"
       id="path39" />
    <path
       stroke="#595959"
       stroke-width="1"
       stroke-linejoin="round"
       stroke-linecap="butt"
       d="m 351.86353,299.34384 v 0 c 0,-4.80096 3.89194,-8.69293 8.6929,-8.69293 v 0 c 2.30551,0 4.51657,0.91586 6.14682,2.54611 1.63025,1.63022 2.54608,3.84131 2.54608,6.14682 v 0 c 0,4.80096 -3.89193,8.6929 -8.6929,8.6929 v 0 c -4.80096,0 -8.6929,-3.89194 -8.6929,-8.6929 z"
       fill-rule="evenodd"
       id="path41" />
    <path
       fill="#c9daf8"
       d="m 351.86353,274.23096 v 0 c 0,-4.80096 3.89194,-8.6929 8.6929,-8.6929 v 0 c 2.30551,0 4.51657,0.91586 6.14682,2.54611 1.63025,1.63022 2.54608,3.84131 2.54608,6.14679 v 0 c 0,4.80096 -3.89193,8.69293 -8.6929,8.69293 v 0 c -4.80096,0 -8.6929,-3.89197 -8.6929,-8.69293 z"
       fill-rule="evenodd"
       id="path43" />
    <path
       stroke="#595959"
       stroke-width="1"
       stroke-linejoin="round"
       stroke-linecap="butt"
       d="m 351.86353,274.23096 v 0 c 0,-4.80096 3.89194,-8.6929 8.6929,-8.6929 v 0 c 2.30551,0 4.51657,0.91586 6.14682,2.54611 1.63025,1.63022 2.54608,3.84131 2.54608,6.14679 v 0 c 0,4.80096 -3.89193,8.69293 -8.6929,8.69293 v 0 c -4.80096,0 -8.6929,-3.89197 -8.6929,-8.69293 z"
       fill-rule="evenodd"
       id="path45" />
    <path
       fill="#c9daf8"
       d="m 351.86353,249.1181 v 0 c 0,-4.80095 3.89194,-8.6929 8.6929,-8.6929 v 0 c 2.30551,0 4.51657,0.91585 6.14682,2.54609 1.63025,1.63024 2.54608,3.84131 2.54608,6.14681 v 0 c 0,4.80096 -3.89193,8.69293 -8.6929,8.69293 v 0 c -4.80096,0 -8.6929,-3.89197 -8.6929,-8.69293 z"
       fill-rule="evenodd"
       id="path47" />
    <path
       stroke="#595959"
       stroke-width="1"
       stroke-linejoin="round"
       stroke-linecap="butt"
       d="m 351.86353,249.1181 v 0 c 0,-4.80095 3.89194,-8.6929 8.6929,-8.6929 v 0 c 2.30551,0 4.51657,0.91585 6.14682,2.54609 1.63025,1.63024 2.54608,3.84131 2.54608,6.14681 v 0 c 0,4.80096 -3.89193,8.69293 -8.6929,8.69293 v 0 c -4.80096,0 -8.6929,-3.89197 -8.6929,-8.69293 z"
       fill-rule="evenodd"
       id="path49" />
    <path
       fill="#c9daf8"
       d="m 373.65878,313.48163 v 0 c 0,-4.80096 3.89197,-8.6929 8.69293,-8.6929 v 0 c 2.30548,0 4.51657,0.91583 6.14682,2.54608 1.63022,1.63025 2.54608,3.84131 2.54608,6.14682 v 0 c 0,4.80096 -3.89193,8.6929 -8.6929,8.6929 v 0 c -4.80096,0 -8.69293,-3.89194 -8.69293,-8.6929 z"
       fill-rule="evenodd"
       id="path51" />
    <path
       stroke="#595959"
       stroke-width="1"
       stroke-linejoin="round"
       stroke-linecap="butt"
       d="m 373.65878,313.48163 v 0 c 0,-4.80096 3.89197,-8.6929 8.69293,-8.6929 v 0 c 2.30548,0 4.51657,0.91583 6.14682,2.54608 1.63022,1.63025 2.54608,3.84131 2.54608,6.14682 v 0 c 0,4.80096 -3.89193,8.6929 -8.6929,8.6929 v 0 c -4.80096,0 -8.69293,-3.89194 -8.69293,-8.6929 z"
       fill-rule="evenodd"
       id="path53" />
    <path
       fill="#c9daf8"
       d="m 373.65878,292.91208 v 0 c 0,-4.80096 3.89197,-8.69293 8.69293,-8.69293 v 0 c 2.30548,0 4.51657,0.91586 6.14682,2.54611 1.63022,1.63025 2.54608,3.84131 2.54608,6.14682 v 0 c 0,4.80096 -3.89193,8.6929 -8.6929,8.6929 v 0 c -4.80096,0 -8.69293,-3.89194 -8.69293,-8.6929 z"
       fill-rule="evenodd"
       id="path55" />
    <path
       stroke="#595959"
       stroke-width="1"
       stroke-linejoin="round"
       stroke-linecap="butt"
       d="m 373.65878,292.91208 v 0 c 0,-4.80096 3.89197,-8.69293 8.69293,-8.69293 v 0 c 2.30548,0 4.51657,0.91586 6.14682,2.54611 1.63022,1.63025 2.54608,3.84131 2.54608,6.14682 v 0 c 0,4.80096 -3.89193,8.6929 -8.6929,8.6929 v 0 c -4.80096,0 -8.69293,-3.89194 -8.69293,-8.6929 z"
       fill-rule="evenodd"
       id="path57" />
    <path
       fill="#c9daf8"
       d="m 373.65878,267.79922 v 0 c 0,-4.80096 3.89197,-8.69293 8.69293,-8.69293 v 0 c 2.30548,0 4.51657,0.91586 6.14682,2.54611 1.63022,1.63022 2.54608,3.84131 2.54608,6.14682 v 0 c 0,4.80096 -3.89193,8.6929 -8.6929,8.6929 v 0 c -4.80096,0 -8.69293,-3.89194 -8.69293,-8.6929 z"
       fill-rule="evenodd"
       id="path59" />
    <path
       stroke="#595959"
       stroke-width="1"
       stroke-linejoin="round"
       stroke-linecap="butt"
       d="m 373.65878,267.79922 v 0 c 0,-4.80096 3.89197,-8.69293 8.69293,-8.69293 v 0 c 2.30548,0 4.51657,0.91586 6.14682,2.54611 1.63022,1.63022 2.54608,3.84131 2.54608,6.14682 v 0 c 0,4.80096 -3.89193,8.6929 -8.6929,8.6929 v 0 c -4.80096,0 -8.69293,-3.89194 -8.69293,-8.6929 z"
       fill-rule="evenodd"
       id="path61" />
    <path
       fill="#c9daf8"
       d="m 395.45407,304.9265 v 0 c 0,-4.80096 3.89194,-8.69293 8.6929,-8.69293 v 0 c 2.30551,0 4.5166,0.91586 6.14682,2.54611 1.63025,1.63025 2.54611,3.84131 2.54611,6.14682 v 0 c 0,4.80096 -3.89196,8.6929 -8.69293,8.6929 v 0 c -4.80096,0 -8.6929,-3.89194 -8.6929,-8.6929 z"
       fill-rule="evenodd"
       id="path63" />
    <path
       stroke="#595959"
       stroke-width="1"
       stroke-linejoin="round"
       stroke-linecap="butt"
       d="m 395.45407,304.9265 v 0 c 0,-4.80096 3.89194,-8.69293 8.6929,-8.69293 v 0 c 2.30551,0 4.5166,0.91586 6.14682,2.54611 1.63025,1.63025 2.54611,3.84131 2.54611,6.14682 v 0 c 0,4.80096 -3.89196,8.6929 -8.69293,8.6929 v 0 c -4.80096,0 -8.6929,-3.89194 -8.6929,-8.6929 z"
       fill-rule="evenodd"
       id="path65" />
    <path
       fill="#c9daf8"
       d="m 395.45407,279.81366 v 0 c 0,-4.80096 3.89194,-8.69293 8.6929,-8.69293 v 0 c 2.30551,0 4.5166,0.91586 6.14682,2.54611 1.63025,1.63022 2.54611,3.84131 2.54611,6.14682 v 0 c 0,4.80096 -3.89196,8.6929 -8.69293,8.6929 v 0 c -4.80096,0 -8.6929,-3.89194 -8.6929,-8.6929 z"
       fill-rule="evenodd"
       id="path67" />
    <path
       stroke="#595959"
       stroke-width="1"
       stroke-linejoin="round"
       stroke-linecap="butt"
       d="m 395.45407,279.81366 v 0 c 0,-4.80096 3.89194,-8.69293 8.6929,-8.69293 v 0 c 2.30551,0 4.5166,0.91586 6.14682,2.54611 1.63025,1.63022 2.54611,3.84131 2.54611,6.14682 v 0 c 0,4.80096 -3.89196,8.6929 -8.69293,8.6929 v 0 c -4.80096,0 -8.6929,-3.89194 -8.6929,-8.6929 z"
       fill-rule="evenodd"
       id="path69" />
    <path
       fill="#c9daf8"
       d="m 419.18372,305.7743 v 0 c 0,-4.80096 3.89197,-8.69293 8.69293,-8.69293 v 0 c 2.30551,0 4.51657,0.91586 6.14682,2.54611 1.63022,1.63022 2.54608,3.84131 2.54608,6.14682 v 0 c 0,4.80096 -3.89193,8.6929 -8.6929,8.6929 v 0 c -4.80096,0 -8.69293,-3.89194 -8.69293,-8.6929 z"
       fill-rule="evenodd"
       id="path71" />
    <path
       stroke="#595959"
       stroke-width="1"
       stroke-linejoin="round"
       stroke-linecap="butt"
       d="m 419.18372,305.7743 v 0 c 0,-4.80096 3.89197,-8.69293 8.69293,-8.69293 v 0 c 2.30551,0 4.51657,0.91586 6.14682,2.54611 1.63022,1.63022 2.54608,3.84131 2.54608,6.14682 v 0 c 0,4.80096 -3.89193,8.6929 -8.6929,8.6929 v 0 c -4.80096,0 -8.69293,-3.89194 -8.69293,-8.6929 z"
       fill-rule="evenodd"
       id="path73" />
    <path
       fill="#c9daf8"
       d="m 419.18372,280.6614 v 0 c 0,-4.80096 3.89197,-8.6929 8.69293,-8.6929 v 0 c 2.30551,0 4.51657,0.91586 6.14682,2.54608 1.63022,1.63025 2.54608,3.84134 2.54608,6.14682 v 0 c 0,4.80096 -3.89193,8.69293 -8.6929,8.69293 v 0 c -4.80096,0 -8.69293,-3.89197 -8.69293,-8.69293 z"
       fill-rule="evenodd"
       id="path75" />
    <path
       stroke="#595959"
       stroke-width="1"
       stroke-linejoin="round"
       stroke-linecap="butt"
       d="m 419.18372,280.6614 v 0 c 0,-4.80096 3.89197,-8.6929 8.69293,-8.6929 v 0 c 2.30551,0 4.51657,0.91586 6.14682,2.54608 1.63022,1.63025 2.54608,3.84134 2.54608,6.14682 v 0 c 0,4.80096 -3.89193,8.69293 -8.6929,8.69293 v 0 c -4.80096,0 -8.69293,-3.89197 -8.69293,-8.69293 z"
       fill-rule="evenodd"
       id="path77" />
    <path
       fill="#c9daf8"
       d="m 286.4777,333.0315 v 0 c 0,-4.80096 3.89194,-8.6929 8.6929,-8.6929 v 0 c 2.30551,0 4.5166,0.91586 6.14682,2.54608 1.63025,1.63025 2.54611,3.84131 2.54611,6.14682 v 0 c 0,4.80096 -3.89196,8.6929 -8.69293,8.6929 v 0 c -4.80096,0 -8.6929,-3.89194 -8.6929,-8.6929 z"
       fill-rule="evenodd"
       id="path79" />
    <path
       stroke="#595959"
       stroke-width="1"
       stroke-linejoin="round"
       stroke-linecap="butt"
       d="m 286.4777,333.0315 v 0 c 0,-4.80096 3.89194,-8.6929 8.6929,-8.6929 v 0 c 2.30551,0 4.5166,0.91586 6.14682,2.54608 1.63025,1.63025 2.54611,3.84131 2.54611,6.14682 v 0 c 0,4.80096 -3.89196,8.6929 -8.69293,8.6929 v 0 c -4.80096,0 -8.6929,-3.89194 -8.6929,-8.6929 z"
       fill-rule="evenodd"
       id="path81" />
    <path
       fill="#c9daf8"
       d="m 330.06824,333.0315 v 0 c 0,-4.80096 3.89197,-8.6929 8.69293,-8.6929 v 0 c 2.30548,0 4.51657,0.91586 6.14679,2.54608 1.63025,1.63025 2.54611,3.84131 2.54611,6.14682 v 0 c 0,4.80096 -3.89196,8.6929 -8.6929,8.6929 v 0 c -4.80096,0 -8.69293,-3.89194 -8.69293,-8.6929 z"
       fill-rule="evenodd"
       id="path83" />
    <path
       stroke="#595959"
       stroke-width="1"
       stroke-linejoin="round"
       stroke-linecap="butt"
       d="m 330.06824,333.0315 v 0 c 0,-4.80096 3.89197,-8.6929 8.69293,-8.6929 v 0 c 2.30548,0 4.51657,0.91586 6.14679,2.54608 1.63025,1.63025 2.54611,3.84131 2.54611,6.14682 v 0 c 0,4.80096 -3.89196,8.6929 -8.6929,8.6929 v 0 c -4.80096,0 -8.69293,-3.89194 -8.69293,-8.6929 z"
       fill-rule="evenodd"
       id="path85" />
    <path
       fill="#c9daf8"
       d="m 308.27298,333.0315 v 0 c 0,-4.80096 3.89194,-8.6929 8.6929,-8.6929 v 0 c 2.30551,0 4.51657,0.91586 6.14682,2.54608 1.63022,1.63025 2.54608,3.84131 2.54608,6.14682 v 0 c 0,4.80096 -3.89193,8.6929 -8.6929,8.6929 v 0 c -4.80096,0 -8.6929,-3.89194 -8.6929,-8.6929 z"
       fill-rule="evenodd"
       id="path87" />
    <path
       stroke="#595959"
       stroke-width="1"
       stroke-linejoin="round"
       stroke-linecap="butt"
       d="m 308.27298,333.0315 v 0 c 0,-4.80096 3.89194,-8.6929 8.6929,-8.6929 v 0 c 2.30551,0 4.51657,0.91586 6.14682,2.54608 1.63022,1.63025 2.54608,3.84131 2.54608,6.14682 v 0 c 0,4.80096 -3.89193,8.6929 -8.6929,8.6929 v 0 c -4.80096,0 -8.6929,-3.89194 -8.6929,-8.6929 z"
       fill-rule="evenodd"
       id="path89" />
    <path
       fill="#c9daf8"
       d="m 351.86353,324.4567 v 0 c 0,-4.80096 3.89194,-8.6929 8.6929,-8.6929 v 0 c 2.30551,0 4.51657,0.91583 6.14682,2.54608 1.63025,1.63025 2.54608,3.84131 2.54608,6.14682 v 0 c 0,4.80096 -3.89193,8.6929 -8.6929,8.6929 v 0 c -4.80096,0 -8.6929,-3.89194 -8.6929,-8.6929 z"
       fill-rule="evenodd"
       id="path91" />
    <path
       stroke="#595959"
       stroke-width="1"
       stroke-linejoin="round"
       stroke-linecap="butt"
       d="m 351.86353,324.4567 v 0 c 0,-4.80096 3.89194,-8.6929 8.6929,-8.6929 v 0 c 2.30551,0 4.51657,0.91583 6.14682,2.54608 1.63025,1.63025 2.54608,3.84131 2.54608,6.14682 v 0 c 0,4.80096 -3.89193,8.6929 -8.6929,8.6929 v 0 c -4.80096,0 -8.6929,-3.89194 -8.6929,-8.6929 z"
       fill-rule="evenodd"
       id="path93" />
    <path
       fill="#c9daf8"
       d="m 308.27298,310.81628 v 0 c 0,-4.80096 3.89194,-8.69293 8.6929,-8.69293 v 0 c 2.30551,0 4.51657,0.91586 6.14682,2.54611 1.63022,1.63022 2.54608,3.84131 2.54608,6.14682 v 0 c 0,4.80096 -3.89193,8.6929 -8.6929,8.6929 v 0 c -4.80096,0 -8.6929,-3.89194 -8.6929,-8.6929 z"
       fill-rule="evenodd"
       id="path95" />
    <path
       stroke="#595959"
       stroke-width="1"
       stroke-linejoin="round"
       stroke-linecap="butt"
       d="m 308.27298,310.81628 v 0 c 0,-4.80096 3.89194,-8.69293 8.6929,-8.69293 v 0 c 2.30551,0 4.51657,0.91586 6.14682,2.54611 1.63022,1.63022 2.54608,3.84131 2.54608,6.14682 v 0 c 0,4.80096 -3.89193,8.6929 -8.6929,8.6929 v 0 c -4.80096,0 -8.6929,-3.89194 -8.6929,-8.6929 z"
       fill-rule="evenodd"
       id="path97" />
    <path
       fill="#c9daf8"
       d="m 330.06824,307.91864 v 0 c 0,-4.80096 3.89197,-8.69293 8.69293,-8.69293 v 0 c 2.30548,0 4.51657,0.91586 6.14679,2.54611 1.63025,1.63025 2.54611,3.84131 2.54611,6.14682 v 0 c 0,4.80096 -3.89196,8.6929 -8.6929,8.6929 v 0 c -4.80096,0 -8.69293,-3.89194 -8.69293,-8.6929 z"
       fill-rule="evenodd"
       id="path99" />
    <path
       stroke="#595959"
       stroke-width="1"
       stroke-linejoin="round"
       stroke-linecap="butt"
       d="m 330.06824,307.91864 v 0 c 0,-4.80096 3.89197,-8.69293 8.69293,-8.69293 v 0 c 2.30548,0 4.51657,0.91586 6.14679,2.54611 1.63025,1.63025 2.54611,3.84131 2.54611,6.14682 v 0 c 0,4.80096 -3.89196,8.6929 -8.6929,8.6929 v 0 c -4.80096,0 -8.69293,-3.89194 -8.69293,-8.6929 z"
       fill-rule="evenodd"
       id="path101" />
    <path
       fill="#c9daf8"
       d="m 194.04462,356.2126 v 0 c 0,-4.80096 3.89195,-8.6929 8.69292,-8.6929 v 0 c 2.30549,0 4.51658,0.91586 6.14682,2.54608 1.63023,1.63025 2.54609,3.84134 2.54609,6.14682 v 0 c 0,4.80096 -3.89195,8.69293 -8.69291,8.69293 v 0 c -4.80097,0 -8.69292,-3.89197 -8.69292,-8.69293 z"
       fill-rule="evenodd"
       id="path103" />
    <path
       stroke="#595959"
       stroke-width="1"
       stroke-linejoin="round"
       stroke-linecap="butt"
       d="m 194.04462,356.2126 v 0 c 0,-4.80096 3.89195,-8.6929 8.69292,-8.6929 v 0 c 2.30549,0 4.51658,0.91586 6.14682,2.54608 1.63023,1.63025 2.54609,3.84134 2.54609,6.14682 v 0 c 0,4.80096 -3.89195,8.69293 -8.69291,8.69293 v 0 c -4.80097,0 -8.69292,-3.89197 -8.69292,-8.69293 z"
       fill-rule="evenodd"
       id="path105" />
    <path
       fill="#c9daf8"
       d="m 237.63518,356.2126 v 0 c 0,-4.80096 3.89194,-8.6929 8.6929,-8.6929 v 0 c 2.30551,0 4.51659,0.91586 6.14682,2.54608 1.63024,1.63025 2.5461,3.84134 2.5461,6.14682 v 0 c 0,4.80096 -3.89195,8.69293 -8.69292,8.69293 v 0 c -4.80096,0 -8.6929,-3.89197 -8.6929,-8.69293 z"
       fill-rule="evenodd"
       id="path107" />
    <path
       stroke="#595959"
       stroke-width="1"
       stroke-linejoin="round"
       stroke-linecap="butt"
       d="m 237.63518,356.2126 v 0 c 0,-4.80096 3.89194,-8.6929 8.6929,-8.6929 v 0 c 2.30551,0 4.51659,0.91586 6.14682,2.54608 1.63024,1.63025 2.5461,3.84134 2.5461,6.14682 v 0 c 0,4.80096 -3.89195,8.69293 -8.69292,8.69293 v 0 c -4.80096,0 -8.6929,-3.89197 -8.6929,-8.69293 z"
       fill-rule="evenodd"
       id="path109" />
    <path
       fill="#c9daf8"
       d="m 215.83989,356.2126 v 0 c 0,-4.80096 3.89195,-8.6929 8.69292,-8.6929 v 0 c 2.30551,0 4.51658,0.91586 6.14682,2.54608 1.63023,1.63025 2.54609,3.84134 2.54609,6.14682 v 0 c 0,4.80096 -3.89195,8.69293 -8.69291,8.69293 v 0 c -4.80097,0 -8.69292,-3.89197 -8.69292,-8.69293 z"
       fill-rule="evenodd"
       id="path111" />
    <path
       stroke="#595959"
       stroke-width="1"
       stroke-linejoin="round"
       stroke-linecap="butt"
       d="m 215.83989,356.2126 v 0 c 0,-4.80096 3.89195,-8.6929 8.69292,-8.6929 v 0 c 2.30551,0 4.51658,0.91586 6.14682,2.54608 1.63023,1.63025 2.54609,3.84134 2.54609,6.14682 v 0 c 0,4.80096 -3.89195,8.69293 -8.69291,8.69293 v 0 c -4.80097,0 -8.69292,-3.89197 -8.69292,-8.69293 z"
       fill-rule="evenodd"
       id="path113" />
    <path
       fill="#c9daf8"
       d="m 259.43045,356.2126 v 0 c 0,-4.80096 3.89194,-8.6929 8.6929,-8.6929 v 0 c 2.30551,0 4.5166,0.91586 6.14682,2.54608 1.63025,1.63025 2.54611,3.84134 2.54611,6.14682 v 0 c 0,4.80096 -3.89196,8.69293 -8.69293,8.69293 v 0 c -4.80096,0 -8.6929,-3.89197 -8.6929,-8.69293 z"
       fill-rule="evenodd"
       id="path115" />
    <path
       stroke="#595959"
       stroke-width="1"
       stroke-linejoin="round"
       stroke-linecap="butt"
       d="m 259.43045,356.2126 v 0 c 0,-4.80096 3.89194,-8.6929 8.6929,-8.6929 v 0 c 2.30551,0 4.5166,0.91586 6.14682,2.54608 1.63025,1.63025 2.54611,3.84134 2.54611,6.14682 v 0 c 0,4.80096 -3.89196,8.69293 -8.69293,8.69293 v 0 c -4.80096,0 -8.6929,-3.89197 -8.6929,-8.69293 z"
       fill-rule="evenodd"
       id="path117" />
    <path
       fill="#c9daf8"
       d="m 281.2257,356.2126 v 0 c 0,-4.80096 3.89197,-8.6929 8.69293,-8.6929 v 0 c 2.30551,0 4.51657,0.91586 6.14682,2.54608 1.63022,1.63025 2.54608,3.84134 2.54608,6.14682 v 0 c 0,4.80096 -3.89193,8.69293 -8.6929,8.69293 v 0 c -4.80096,0 -8.69293,-3.89197 -8.69293,-8.69293 z"
       fill-rule="evenodd"
       id="path119" />
    <path
       stroke="#595959"
       stroke-width="1"
       stroke-linejoin="round"
       stroke-linecap="butt"
       d="m 281.2257,356.2126 v 0 c 0,-4.80096 3.89197,-8.6929 8.69293,-8.6929 v 0 c 2.30551,0 4.51657,0.91586 6.14682,2.54608 1.63022,1.63025 2.54608,3.84134 2.54608,6.14682 v 0 c 0,4.80096 -3.89193,8.69293 -8.6929,8.69293 v 0 c -4.80096,0 -8.69293,-3.89197 -8.69293,-8.69293 z"
       fill-rule="evenodd"
       id="path121" />
    <path
       fill="#c9daf8"
       d="m 311.021,356.2126 v 0 c 0,-4.80096 3.89194,-8.6929 8.6929,-8.6929 v 0 c 2.30551,0 4.5166,0.91586 6.14682,2.54608 1.63025,1.63025 2.54611,3.84134 2.54611,6.14682 v 0 c 0,4.80096 -3.89196,8.69293 -8.69293,8.69293 v 0 c -4.80096,0 -8.6929,-3.89197 -8.6929,-8.69293 z"
       fill-rule="evenodd"
       id="path123" />
    <path
       stroke="#595959"
       stroke-width="1"
       stroke-linejoin="round"
       stroke-linecap="butt"
       d="m 311.021,356.2126 v 0 c 0,-4.80096 3.89194,-8.6929 8.6929,-8.6929 v 0 c 2.30551,0 4.5166,0.91586 6.14682,2.54608 1.63025,1.63025 2.54611,3.84134 2.54611,6.14682 v 0 c 0,4.80096 -3.89196,8.69293 -8.69293,8.69293 v 0 c -4.80096,0 -8.6929,-3.89197 -8.6929,-8.69293 z"
       fill-rule="evenodd"
       id="path125" />
    <path
       fill="#c9daf8"
       d="m 221.09186,307.91864 v 0 c 0,-4.80096 3.89195,-8.69293 8.69292,-8.69293 v 0 c 2.30551,0 4.51658,0.91586 6.14682,2.54611 1.63023,1.63025 2.54609,3.84131 2.54609,6.14682 v 0 c 0,4.80096 -3.89195,8.6929 -8.69291,8.6929 v 0 c -4.80097,0 -8.69292,-3.89194 -8.69292,-8.6929 z"
       fill-rule="evenodd"
       id="path127" />
    <path
       stroke="#595959"
       stroke-width="1"
       stroke-linejoin="round"
       stroke-linecap="butt"
       d="m 221.09186,307.91864 v 0 c 0,-4.80096 3.89195,-8.69293 8.69292,-8.69293 v 0 c 2.30551,0 4.51658,0.91586 6.14682,2.54611 1.63023,1.63025 2.54609,3.84131 2.54609,6.14682 v 0 c 0,4.80096 -3.89195,8.6929 -8.69291,8.6929 v 0 c -4.80097,0 -8.69292,-3.89194 -8.69292,-8.6929 z"
       fill-rule="evenodd"
       id="path129" />
    <path
       fill="#c9daf8"
       d="m 242.88715,307.91864 v 0 c 0,-4.80096 3.89194,-8.69293 8.6929,-8.69293 v 0 c 2.30551,0 4.51657,0.91586 6.14682,2.54611 1.63025,1.63025 2.54611,3.84131 2.54611,6.14682 v 0 c 0,4.80096 -3.89196,8.6929 -8.69293,8.6929 v 0 c -4.80096,0 -8.6929,-3.89194 -8.6929,-8.6929 z"
       fill-rule="evenodd"
       id="path131" />
    <path
       stroke="#595959"
       stroke-width="1"
       stroke-linejoin="round"
       stroke-linecap="butt"
       d="m 242.88715,307.91864 v 0 c 0,-4.80096 3.89194,-8.69293 8.6929,-8.69293 v 0 c 2.30551,0 4.51657,0.91586 6.14682,2.54611 1.63025,1.63025 2.54611,3.84131 2.54611,6.14682 v 0 c 0,4.80096 -3.89196,8.6929 -8.69293,8.6929 v 0 c -4.80096,0 -8.6929,-3.89194 -8.6929,-8.6929 z"
       fill-rule="evenodd"
       id="path133" />
    <path
       fill="#c9daf8"
       d="m 242.88715,282.8058 v 0 c 0,-4.80096 3.89194,-8.69293 8.6929,-8.69293 v 0 c 2.30551,0 4.51657,0.91586 6.14682,2.54611 1.63025,1.63022 2.54611,3.84131 2.54611,6.14682 v 0 c 0,4.80096 -3.89196,8.6929 -8.69293,8.6929 v 0 c -4.80096,0 -8.6929,-3.89194 -8.6929,-8.6929 z"
       fill-rule="evenodd"
       id="path135" />
    <path
       stroke="#595959"
       stroke-width="1"
       stroke-linejoin="round"
       stroke-linecap="butt"
       d="m 242.88715,282.8058 v 0 c 0,-4.80096 3.89194,-8.69293 8.6929,-8.69293 v 0 c 2.30551,0 4.51657,0.91586 6.14682,2.54611 1.63025,1.63022 2.54611,3.84131 2.54611,6.14682 v 0 c 0,4.80096 -3.89196,8.6929 -8.69293,8.6929 v 0 c -4.80096,0 -8.6929,-3.89194 -8.6929,-8.6929 z"
       fill-rule="evenodd"
       id="path137" />
    <path
       fill="#c9daf8"
       d="m 264.6824,307.91864 v 0 c 0,-4.80096 3.89197,-8.69293 8.69293,-8.69293 v 0 c 2.30551,0 4.51657,0.91586 6.14682,2.54611 1.63022,1.63025 2.54608,3.84131 2.54608,6.14682 v 0 c 0,4.80096 -3.89193,8.6929 -8.6929,8.6929 v 0 c -4.80096,0 -8.69293,-3.89194 -8.69293,-8.6929 z"
       fill-rule="evenodd"
       id="path139" />
    <path
       stroke="#595959"
       stroke-width="1"
       stroke-linejoin="round"
       stroke-linecap="butt"
       d="m 264.6824,307.91864 v 0 c 0,-4.80096 3.89197,-8.69293 8.69293,-8.69293 v 0 c 2.30551,0 4.51657,0.91586 6.14682,2.54611 1.63022,1.63025 2.54608,3.84131 2.54608,6.14682 v 0 c 0,4.80096 -3.89193,8.6929 -8.6929,8.6929 v 0 c -4.80096,0 -8.69293,-3.89194 -8.69293,-8.6929 z"
       fill-rule="evenodd"
       id="path141" />
    <path
       fill="#c9daf8"
       d="m 264.6824,282.8058 v 0 c 0,-4.80096 3.89197,-8.69293 8.69293,-8.69293 v 0 c 2.30551,0 4.51657,0.91586 6.14682,2.54611 1.63022,1.63022 2.54608,3.84131 2.54608,6.14682 v 0 c 0,4.80096 -3.89193,8.6929 -8.6929,8.6929 v 0 c -4.80096,0 -8.69293,-3.89194 -8.69293,-8.6929 z"
       fill-rule="evenodd"
       id="path143" />
    <path
       stroke="#595959"
       stroke-width="1"
       stroke-linejoin="round"
       stroke-linecap="butt"
       d="m 264.6824,282.8058 v 0 c 0,-4.80096 3.89197,-8.69293 8.69293,-8.69293 v 0 c 2.30551,0 4.51657,0.91586 6.14682,2.54611 1.63022,1.63022 2.54608,3.84131 2.54608,6.14682 v 0 c 0,4.80096 -3.89193,8.6929 -8.6929,8.6929 v 0 c -4.80096,0 -8.69293,-3.89194 -8.69293,-8.6929 z"
       fill-rule="evenodd"
       id="path145" />
    <path
       fill="#c9daf8"
       d="m 275.58005,266.04462 v 0 c 0,-4.80096 3.89197,-8.6929 8.69293,-8.6929 v 0 c 2.30548,0 4.51657,0.91586 6.14679,2.54608 1.63025,1.63025 2.54611,3.84131 2.54611,6.14682 v 0 c 0,4.80096 -3.89193,8.6929 -8.6929,8.6929 v 0 c -4.80096,0 -8.69293,-3.89194 -8.69293,-8.6929 z"
       fill-rule="evenodd"
       id="path147" />
    <path
       stroke="#595959"
       stroke-width="1"
       stroke-linejoin="round"
       stroke-linecap="butt"
       d="m 275.58005,266.04462 v 0 c 0,-4.80096 3.89197,-8.6929 8.69293,-8.6929 v 0 c 2.30548,0 4.51657,0.91586 6.14679,2.54608 1.63025,1.63025 2.54611,3.84131 2.54611,6.14682 v 0 c 0,4.80096 -3.89193,8.6929 -8.6929,8.6929 v 0 c -4.80096,0 -8.69293,-3.89194 -8.69293,-8.6929 z"
       fill-rule="evenodd"
       id="path149" />
    <path
       fill="#c9daf8"
       d="m 308.27298,288.60104 v 0 c 0,-4.80096 3.89194,-8.6929 8.6929,-8.6929 v 0 c 2.30551,0 4.51657,0.91586 6.14682,2.54608 1.63022,1.63025 2.54608,3.84131 2.54608,6.14682 v 0 c 0,4.80096 -3.89193,8.69293 -8.6929,8.69293 v 0 c -4.80096,0 -8.6929,-3.89197 -8.6929,-8.69293 z"
       fill-rule="evenodd"
       id="path151" />
    <path
       stroke="#595959"
       stroke-width="1"
       stroke-linejoin="round"
       stroke-linecap="butt"
       d="m 308.27298,288.60104 v 0 c 0,-4.80096 3.89194,-8.6929 8.6929,-8.6929 v 0 c 2.30551,0 4.51657,0.91586 6.14682,2.54608 1.63022,1.63025 2.54608,3.84131 2.54608,6.14682 v 0 c 0,4.80096 -3.89193,8.69293 -8.6929,8.69293 v 0 c -4.80096,0 -8.6929,-3.89197 -8.6929,-8.69293 z"
       fill-rule="evenodd"
       id="path153" />
    <path
       fill="#c9daf8"
       d="m 308.27298,265.41995 v 0 c 0,-4.80096 3.89194,-8.69293 8.6929,-8.69293 v 0 c 2.30551,0 4.51657,0.91586 6.14682,2.54611 1.63022,1.63025 2.54608,3.84131 2.54608,6.14682 v 0 c 0,4.80096 -3.89193,8.6929 -8.6929,8.6929 v 0 c -4.80096,0 -8.6929,-3.89194 -8.6929,-8.6929 z"
       fill-rule="evenodd"
       id="path155" />
    <path
       stroke="#595959"
       stroke-width="1"
       stroke-linejoin="round"
       stroke-linecap="butt"
       d="m 308.27298,265.41995 v 0 c 0,-4.80096 3.89194,-8.69293 8.6929,-8.69293 v 0 c 2.30551,0 4.51657,0.91586 6.14682,2.54611 1.63022,1.63025 2.54608,3.84131 2.54608,6.14682 v 0 c 0,4.80096 -3.89193,8.6929 -8.6929,8.6929 v 0 c -4.80096,0 -8.6929,-3.89194 -8.6929,-8.6929 z"
       fill-rule="evenodd"
       id="path157" />
    <path
       fill="#c9daf8"
       d="m 308.27298,240.30708 v 0 c 0,-4.80096 3.89194,-8.69292 8.6929,-8.69292 v 0 c 2.30551,0 4.51657,0.91587 6.14682,2.5461 1.63022,1.63025 2.54608,3.84132 2.54608,6.14682 v 0 c 0,4.80096 -3.89193,8.69292 -8.6929,8.69292 v 0 c -4.80096,0 -8.6929,-3.89196 -8.6929,-8.69292 z"
       fill-rule="evenodd"
       id="path159" />
    <path
       stroke="#595959"
       stroke-width="1"
       stroke-linejoin="round"
       stroke-linecap="butt"
       d="m 308.27298,240.30708 v 0 c 0,-4.80096 3.89194,-8.69292 8.6929,-8.69292 v 0 c 2.30551,0 4.51657,0.91587 6.14682,2.5461 1.63022,1.63025 2.54608,3.84132 2.54608,6.14682 v 0 c 0,4.80096 -3.89193,8.69292 -8.6929,8.69292 v 0 c -4.80096,0 -8.6929,-3.89196 -8.6929,-8.69292 z"
       fill-rule="evenodd"
       id="path161" />
    <path
       fill="#c9daf8"
       d="m 255.021,262.48557 v 0 c 0,-4.80096 3.89194,-8.69292 8.6929,-8.69292 v 0 c 2.30551,0 4.5166,0.91587 6.14682,2.5461 1.63025,1.63025 2.54611,3.84131 2.54611,6.14682 v 0 c 0,4.80096 -3.89196,8.6929 -8.69293,8.6929 v 0 c -4.80096,0 -8.6929,-3.89194 -8.6929,-8.6929 z"
       fill-rule="evenodd"
       id="path163" />
    <path
       stroke="#595959"
       stroke-width="1"
       stroke-linejoin="round"
       stroke-linecap="butt"
       d="m 255.021,262.48557 v 0 c 0,-4.80096 3.89194,-8.69292 8.6929,-8.69292 v 0 c 2.30551,0 4.5166,0.91587 6.14682,2.5461 1.63025,1.63025 2.54611,3.84131 2.54611,6.14682 v 0 c 0,4.80096 -3.89196,8.6929 -8.69293,8.6929 v 0 c -4.80096,0 -8.6929,-3.89194 -8.6929,-8.6929 z"
       fill-rule="evenodd"
       id="path165" />
    <path
       fill="#c9daf8"
       d="m 286.4777,283.6614 v 0 c 0,-4.80096 3.89194,-8.6929 8.6929,-8.6929 v 0 c 2.30551,0 4.5166,0.91586 6.14682,2.54608 1.63025,1.63025 2.54611,3.84134 2.54611,6.14682 v 0 c 0,4.80096 -3.89196,8.69293 -8.69293,8.69293 v 0 c -4.80096,0 -8.6929,-3.89197 -8.6929,-8.69293 z"
       fill-rule="evenodd"
       id="path167" />
    <path
       stroke="#595959"
       stroke-width="1"
       stroke-linejoin="round"
       stroke-linecap="butt"
       d="m 286.4777,283.6614 v 0 c 0,-4.80096 3.89194,-8.6929 8.6929,-8.6929 v 0 c 2.30551,0 4.5166,0.91586 6.14682,2.54608 1.63025,1.63025 2.54611,3.84134 2.54611,6.14682 v 0 c 0,4.80096 -3.89196,8.69293 -8.69293,8.69293 v 0 c -4.80096,0 -8.6929,-3.89197 -8.6929,-8.69293 z"
       fill-rule="evenodd"
       id="path169" />
    <path
       fill="#c9daf8"
       d="m 286.4777,249.1181 v 0 c 0,-4.80095 3.89194,-8.6929 8.6929,-8.6929 v 0 c 2.30551,0 4.5166,0.91585 6.14682,2.54609 1.63025,1.63024 2.54611,3.84131 2.54611,6.14681 v 0 c 0,4.80096 -3.89196,8.69293 -8.69293,8.69293 v 0 c -4.80096,0 -8.6929,-3.89197 -8.6929,-8.69293 z"
       fill-rule="evenodd"
       id="path171" />
    <path
       stroke="#595959"
       stroke-width="1"
       stroke-linejoin="round"
       stroke-linecap="butt"
       d="m 286.4777,249.1181 v 0 c 0,-4.80095 3.89194,-8.6929 8.6929,-8.6929 v 0 c 2.30551,0 4.5166,0.91585 6.14682,2.54609 1.63025,1.63024 2.54611,3.84131 2.54611,6.14681 v 0 c 0,4.80096 -3.89196,8.69293 -8.69293,8.69293 v 0 c -4.80096,0 -8.6929,-3.89197 -8.6929,-8.69293 z"
       fill-rule="evenodd"
       id="path173" />
    <path
       fill="#c9daf8"
       d="m 286.4777,303.63123 v 0 c 0,-4.80096 3.89194,-8.6929 8.6929,-8.6929 v 0 c 2.30551,0 4.5166,0.91586 6.14682,2.54608 1.63025,1.63025 2.54611,3.84134 2.54611,6.14682 v 0 c 0,4.80096 -3.89196,8.69293 -8.69293,8.69293 v 0 c -4.80096,0 -8.6929,-3.89197 -8.6929,-8.69293 z"
       fill-rule="evenodd"
       id="path175" />
    <path
       stroke="#595959"
       stroke-width="1"
       stroke-linejoin="round"
       stroke-linecap="butt"
       d="m 286.4777,303.63123 v 0 c 0,-4.80096 3.89194,-8.6929 8.6929,-8.6929 v 0 c 2.30551,0 4.5166,0.91586 6.14682,2.54608 1.63025,1.63025 2.54611,3.84134 2.54611,6.14682 v 0 c 0,4.80096 -3.89196,8.69293 -8.69293,8.69293 v 0 c -4.80096,0 -8.6929,-3.89197 -8.6929,-8.69293 z"
       fill-rule="evenodd"
       id="path177" />
    <path
       fill="#c9daf8"
       d="m 528.68243,332.8084 v 0 c 0,-4.80096 3.89191,-8.69293 8.69287,-8.69293 v 0 c 2.30554,0 4.5166,0.91586 6.14685,2.54611 1.63025,1.63022 2.54608,3.84131 2.54608,6.14682 v 0 c 0,4.80096 -3.89196,8.6929 -8.69293,8.6929 v 0 c -4.80096,0 -8.69287,-3.89194 -8.69287,-8.6929 z"
       fill-rule="evenodd"
       id="path179" />
    <path
       stroke="#595959"
       stroke-width="3"
       stroke-linejoin="round"
       stroke-linecap="butt"
       d="m 528.68243,332.8084 v 0 c 0,-4.80096 3.89191,-8.69293 8.69287,-8.69293 v 0 c 2.30554,0 4.5166,0.91586 6.14685,2.54611 1.63025,1.63022 2.54608,3.84131 2.54608,6.14682 v 0 c 0,4.80096 -3.89196,8.6929 -8.69293,8.6929 v 0 c -4.80096,0 -8.69287,-3.89194 -8.69287,-8.6929 z"
       fill-rule="evenodd"
       id="path181" />
    <path
       fill="#c9daf8"
       d="m 659.45404,232.35695 v 0 c 0,-4.80096 3.89197,-8.6929 8.69293,-8.6929 v 0 c 2.30554,0 4.5166,0.91585 6.14685,2.54609 1.63019,1.63024 2.54608,3.84131 2.54608,6.14681 v 0 c 0,4.80096 -3.89196,8.69292 -8.69293,8.69292 v 0 c -4.80096,0 -8.69293,-3.89196 -8.69293,-8.69292 z"
       fill-rule="evenodd"
       id="path183" />
    <path
       stroke="#595959"
       stroke-width="3"
       stroke-linejoin="round"
       stroke-linecap="butt"
       d="m 659.45404,232.35695 v 0 c 0,-4.80096 3.89197,-8.6929 8.69293,-8.6929 v 0 c 2.30554,0 4.5166,0.91585 6.14685,2.54609 1.63019,1.63024 2.54608,3.84131 2.54608,6.14681 v 0 c 0,4.80096 -3.89196,8.69292 -8.69293,8.69292 v 0 c -4.80096,0 -8.69293,-3.89196 -8.69293,-8.69292 z"
       fill-rule="evenodd"
       id="path185" />
    <path
       fill="#c9daf8"
       d="m 681.2493,248.89502 v 0 c 0,-4.80096 3.89197,-8.69292 8.69293,-8.69292 v 0 c 2.30548,0 4.5166,0.91585 6.14679,2.5461 1.63025,1.63023 2.54614,3.84131 2.54614,6.14682 v 0 c 0,4.80096 -3.89196,8.6929 -8.69293,8.6929 v 0 c -4.80096,0 -8.69293,-3.89194 -8.69293,-8.6929 z"
       fill-rule="evenodd"
       id="path187" />
    <path
       stroke="#595959"
       stroke-width="3"
       stroke-linejoin="round"
       stroke-linecap="butt"
       d="m 681.2493,248.89502 v 0 c 0,-4.80096 3.89197,-8.69292 8.69293,-8.69292 v 0 c 2.30548,0 4.5166,0.91585 6.14679,2.5461 1.63025,1.63023 2.54614,3.84131 2.54614,6.14682 v 0 c 0,4.80096 -3.89196,8.6929 -8.69293,8.6929 v 0 c -4.80096,0 -8.69293,-3.89194 -8.69293,-8.6929 z"
       fill-rule="evenodd"
       id="path189" />
    <path
       fill="#c9daf8"
       d="m 703.0446,313.25854 v 0 c 0,-4.80096 3.89197,-8.69293 8.69293,-8.69293 v 0 c 2.30548,0 4.51654,0.91586 6.14679,2.54611 1.63025,1.63022 2.54608,3.84131 2.54608,6.14682 v 0 c 0,4.80093 -3.8919,8.6929 -8.69287,8.6929 v 0 c -4.80096,0 -8.69293,-3.89197 -8.69293,-8.6929 z"
       fill-rule="evenodd"
       id="path191" />
    <path
       stroke="#595959"
       stroke-width="3"
       stroke-linejoin="round"
       stroke-linecap="butt"
       d="m 703.0446,313.25854 v 0 c 0,-4.80096 3.89197,-8.69293 8.69293,-8.69293 v 0 c 2.30548,0 4.51654,0.91586 6.14679,2.54611 1.63025,1.63022 2.54608,3.84131 2.54608,6.14682 v 0 c 0,4.80093 -3.8919,8.6929 -8.69287,8.6929 v 0 c -4.80096,0 -8.69293,-3.89197 -8.69293,-8.6929 z"
       fill-rule="evenodd"
       id="path193" />
    <path
       fill="#c9daf8"
       d="m 703.0446,267.5761 v 0 c 0,-4.80096 3.89197,-8.6929 8.69293,-8.6929 v 0 c 2.30548,0 4.51654,0.91586 6.14679,2.54608 1.63025,1.63025 2.54608,3.84131 2.54608,6.14682 v 0 c 0,4.80096 -3.8919,8.69293 -8.69287,8.69293 v 0 c -4.80096,0 -8.69293,-3.89197 -8.69293,-8.69293 z"
       fill-rule="evenodd"
       id="path195" />
    <path
       stroke="#595959"
       stroke-width="3"
       stroke-linejoin="round"
       stroke-linecap="butt"
       d="m 703.0446,267.5761 v 0 c 0,-4.80096 3.89197,-8.6929 8.69293,-8.6929 v 0 c 2.30548,0 4.51654,0.91586 6.14679,2.54608 1.63025,1.63025 2.54608,3.84131 2.54608,6.14682 v 0 c 0,4.80096 -3.8919,8.69293 -8.69287,8.69293 v 0 c -4.80096,0 -8.69293,-3.89197 -8.69293,-8.69293 z"
       fill-rule="evenodd"
       id="path197" />
    <path
       fill="#c9daf8"
       d="m 724.8399,304.7034 v 0 c 0,-4.80096 3.89197,-8.6929 8.69293,-8.6929 v 0 c 2.30548,0 4.51654,0.91586 6.14679,2.54608 1.63025,1.63025 2.54608,3.84134 2.54608,6.14682 v 0 c 0,4.80096 -3.8919,8.69293 -8.69287,8.69293 v 0 c -4.80096,0 -8.69293,-3.89197 -8.69293,-8.69293 z"
       fill-rule="evenodd"
       id="path199" />
    <path
       stroke="#595959"
       stroke-width="3"
       stroke-linejoin="round"
       stroke-linecap="butt"
       d="m 724.8399,304.7034 v 0 c 0,-4.80096 3.89197,-8.6929 8.69293,-8.6929 v 0 c 2.30548,0 4.51654,0.91586 6.14679,2.54608 1.63025,1.63025 2.54608,3.84134 2.54608,6.14682 v 0 c 0,4.80096 -3.8919,8.69293 -8.69287,8.69293 v 0 c -4.80096,0 -8.69293,-3.89197 -8.69293,-8.69293 z"
       fill-rule="evenodd"
       id="path201" />
    <path
       fill="#c9daf8"
       d="m 724.8399,279.59055 v 0 c 0,-4.80096 3.89197,-8.6929 8.69293,-8.6929 v 0 c 2.30548,0 4.51654,0.91586 6.14679,2.54608 1.63025,1.63025 2.54608,3.84131 2.54608,6.14682 v 0 c 0,4.80096 -3.8919,8.69293 -8.69287,8.69293 v 0 c -4.80096,0 -8.69293,-3.89197 -8.69293,-8.69293 z"
       fill-rule="evenodd"
       id="path203" />
    <path
       stroke="#595959"
       stroke-width="3"
       stroke-linejoin="round"
       stroke-linecap="butt"
       d="m 724.8399,279.59055 v 0 c 0,-4.80096 3.89197,-8.6929 8.69293,-8.6929 v 0 c 2.30548,0 4.51654,0.91586 6.14679,2.54608 1.63025,1.63025 2.54608,3.84131 2.54608,6.14682 v 0 c 0,4.80096 -3.8919,8.69293 -8.69287,8.69293 v 0 c -4.80096,0 -8.69293,-3.89197 -8.69293,-8.69293 z"
       fill-rule="evenodd"
       id="path205" />
    <path
       fill="#c9daf8"
       d="m 748.5696,305.55118 v 0 c 0,-4.80096 3.89191,-8.6929 8.69287,-8.6929 v 0 c 2.30554,0 4.5166,0.91586 6.14685,2.54608 1.63025,1.63025 2.54608,3.84131 2.54608,6.14682 v 0 c 0,4.80096 -3.89196,8.6929 -8.69293,8.6929 v 0 c -4.80096,0 -8.69287,-3.89194 -8.69287,-8.6929 z"
       fill-rule="evenodd"
       id="path207" />
    <path
       stroke="#595959"
       stroke-width="3"
       stroke-linejoin="round"
       stroke-linecap="butt"
       d="m 748.5696,305.55118 v 0 c 0,-4.80096 3.89191,-8.6929 8.69287,-8.6929 v 0 c 2.30554,0 4.5166,0.91586 6.14685,2.54608 1.63025,1.63025 2.54608,3.84131 2.54608,6.14682 v 0 c 0,4.80096 -3.89196,8.6929 -8.69293,8.6929 v 0 c -4.80096,0 -8.69287,-3.89194 -8.69287,-8.6929 z"
       fill-rule="evenodd"
       id="path209" />
    <path
       fill="#c9daf8"
       d="m 748.5696,280.43832 v 0 c 0,-4.80096 3.89191,-8.69293 8.69287,-8.69293 v 0 c 2.30554,0 4.5166,0.91586 6.14685,2.54611 1.63025,1.63025 2.54608,3.84131 2.54608,6.14682 v 0 c 0,4.80096 -3.89196,8.6929 -8.69293,8.6929 v 0 c -4.80096,0 -8.69287,-3.89194 -8.69287,-8.6929 z"
       fill-rule="evenodd"
       id="path211" />
    <path
       stroke="#595959"
       stroke-width="3"
       stroke-linejoin="round"
       stroke-linecap="butt"
       d="m 748.5696,280.43832 v 0 c 0,-4.80096 3.89191,-8.69293 8.69287,-8.69293 v 0 c 2.30554,0 4.5166,0.91586 6.14685,2.54611 1.63025,1.63025 2.54608,3.84131 2.54608,6.14682 v 0 c 0,4.80096 -3.89196,8.6929 -8.69293,8.6929 v 0 c -4.80096,0 -8.69287,-3.89194 -8.69287,-8.6929 z"
       fill-rule="evenodd"
       id="path213" />
    <path
       fill="#c9daf8"
       d="m 523.4304,355.9895 v 0 c 0,-4.80096 3.89197,-8.6929 8.69293,-8.6929 v 0 c 2.30554,0 4.5166,0.91583 6.14685,2.54608 1.63019,1.63025 2.54608,3.84131 2.54608,6.14682 v 0 c 0,4.80096 -3.89196,8.6929 -8.69293,8.6929 v 0 c -4.80096,0 -8.69293,-3.89194 -8.69293,-8.6929 z"
       fill-rule="evenodd"
       id="path215" />
    <path
       stroke="#595959"
       stroke-width="3"
       stroke-linejoin="round"
       stroke-linecap="butt"
       d="m 523.4304,355.9895 v 0 c 0,-4.80096 3.89197,-8.6929 8.69293,-8.6929 v 0 c 2.30554,0 4.5166,0.91583 6.14685,2.54608 1.63019,1.63025 2.54608,3.84131 2.54608,6.14682 v 0 c 0,4.80096 -3.89196,8.6929 -8.69293,8.6929 v 0 c -4.80096,0 -8.69293,-3.89194 -8.69293,-8.6929 z"
       fill-rule="evenodd"
       id="path217" />
    <path
       fill="#c9daf8"
       d="m 567.021,355.9895 v 0 c 0,-4.80096 3.89197,-8.6929 8.69293,-8.6929 v 0 c 2.30548,0 4.51654,0.91583 6.14679,2.54608 1.63025,1.63025 2.54608,3.84131 2.54608,6.14682 v 0 c 0,4.80096 -3.8919,8.6929 -8.69287,8.6929 v 0 c -4.80096,0 -8.69293,-3.89194 -8.69293,-8.6929 z"
       fill-rule="evenodd"
       id="path219" />
    <path
       stroke="#595959"
       stroke-width="3"
       stroke-linejoin="round"
       stroke-linecap="butt"
       d="m 567.021,355.9895 v 0 c 0,-4.80096 3.89197,-8.6929 8.69293,-8.6929 v 0 c 2.30548,0 4.51654,0.91583 6.14679,2.54608 1.63025,1.63025 2.54608,3.84131 2.54608,6.14682 v 0 c 0,4.80096 -3.8919,8.6929 -8.69287,8.6929 v 0 c -4.80096,0 -8.69293,-3.89194 -8.69293,-8.6929 z"
       fill-rule="evenodd"
       id="path221" />
    <path
       fill="#c9daf8"
       d="m 545.2257,355.9895 v 0 c 0,-4.80096 3.89197,-8.6929 8.69293,-8.6929 v 0 c 2.30548,0 4.5166,0.91583 6.14679,2.54608 1.63025,1.63025 2.54614,3.84131 2.54614,6.14682 v 0 c 0,4.80096 -3.89196,8.6929 -8.69293,8.6929 v 0 c -4.80096,0 -8.69293,-3.89194 -8.69293,-8.6929 z"
       fill-rule="evenodd"
       id="path223" />
    <path
       stroke="#595959"
       stroke-width="3"
       stroke-linejoin="round"
       stroke-linecap="butt"
       d="m 545.2257,355.9895 v 0 c 0,-4.80096 3.89197,-8.6929 8.69293,-8.6929 v 0 c 2.30548,0 4.5166,0.91583 6.14679,2.54608 1.63025,1.63025 2.54614,3.84131 2.54614,6.14682 v 0 c 0,4.80096 -3.89196,8.6929 -8.69293,8.6929 v 0 c -4.80096,0 -8.69293,-3.89194 -8.69293,-8.6929 z"
       fill-rule="evenodd"
       id="path225" />
    <path
       fill="#c9daf8"
       d="m 550.47766,307.69553 v 0 c 0,-4.80096 3.89197,-8.6929 8.69293,-8.6929 v 0 c 2.30554,0 4.5166,0.91586 6.14685,2.54608 1.63019,1.63025 2.54608,3.84134 2.54608,6.14682 v 0 c 0,4.80096 -3.89196,8.69293 -8.69293,8.69293 v 0 c -4.80096,0 -8.69293,-3.89197 -8.69293,-8.69293 z"
       fill-rule="evenodd"
       id="path227" />
    <path
       stroke="#595959"
       stroke-width="3"
       stroke-linejoin="round"
       stroke-linecap="butt"
       d="m 550.47766,307.69553 v 0 c 0,-4.80096 3.89197,-8.6929 8.69293,-8.6929 v 0 c 2.30554,0 4.5166,0.91586 6.14685,2.54608 1.63019,1.63025 2.54608,3.84134 2.54608,6.14682 v 0 c 0,4.80096 -3.89196,8.69293 -8.69293,8.69293 v 0 c -4.80096,0 -8.69293,-3.89197 -8.69293,-8.69293 z"
       fill-rule="evenodd"
       id="path229" />
    <path
       fill="#c9daf8"
       d="m 572.27295,282.58267 v 0 c 0,-4.80096 3.89197,-8.6929 8.69293,-8.6929 v 0 c 2.30548,0 4.5166,0.91586 6.14679,2.54608 1.63025,1.63025 2.54614,3.84131 2.54614,6.14682 v 0 c 0,4.80096 -3.89196,8.69293 -8.69293,8.69293 v 0 c -4.80096,0 -8.69293,-3.89197 -8.69293,-8.69293 z"
       fill-rule="evenodd"
       id="path231" />
    <path
       stroke="#595959"
       stroke-width="3"
       stroke-linejoin="round"
       stroke-linecap="butt"
       d="m 572.27295,282.58267 v 0 c 0,-4.80096 3.89197,-8.6929 8.69293,-8.6929 v 0 c 2.30548,0 4.5166,0.91586 6.14679,2.54608 1.63025,1.63025 2.54614,3.84131 2.54614,6.14682 v 0 c 0,4.80096 -3.89196,8.69293 -8.69293,8.69293 v 0 c -4.80096,0 -8.69293,-3.89197 -8.69293,-8.69293 z"
       fill-rule="evenodd"
       id="path233" />
    <path
       fill="#c9daf8"
       d="m 637.6588,240.08398 v 0 c 0,-4.80096 3.89191,-8.6929 8.69287,-8.6929 v 0 c 2.30554,0 4.5166,0.91585 6.14685,2.54608 1.63025,1.63025 2.54608,3.84132 2.54608,6.14682 v 0 c 0,4.80096 -3.89196,8.69292 -8.69293,8.69292 v 0 c -4.80096,0 -8.69287,-3.89196 -8.69287,-8.69292 z"
       fill-rule="evenodd"
       id="path235" />
    <path
       stroke="#595959"
       stroke-width="3"
       stroke-linejoin="round"
       stroke-linecap="butt"
       d="m 637.6588,240.08398 v 0 c 0,-4.80096 3.89191,-8.6929 8.69287,-8.6929 v 0 c 2.30554,0 4.5166,0.91585 6.14685,2.54608 1.63025,1.63025 2.54608,3.84132 2.54608,6.14682 v 0 c 0,4.80096 -3.89196,8.69292 -8.69293,8.69292 v 0 c -4.80096,0 -8.69287,-3.89196 -8.69287,-8.69292 z"
       fill-rule="evenodd"
       id="path237" />
    <path
       fill="#c9daf8"
       d="m 584.4068,262.26248 v 0 c 0,-4.80096 3.89197,-8.69293 8.69293,-8.69293 v 0 c 2.30548,0 4.5166,0.91586 6.14685,2.54611 1.63019,1.63022 2.54608,3.84131 2.54608,6.14682 v 0 c 0,4.80093 -3.89196,8.6929 -8.69293,8.6929 v 0 c -4.80096,0 -8.69293,-3.89197 -8.69293,-8.6929 z"
       fill-rule="evenodd"
       id="path239" />
    <path
       stroke="#595959"
       stroke-width="3"
       stroke-linejoin="round"
       stroke-linecap="butt"
       d="m 584.4068,262.26248 v 0 c 0,-4.80096 3.89197,-8.69293 8.69293,-8.69293 v 0 c 2.30548,0 4.5166,0.91586 6.14685,2.54611 1.63019,1.63022 2.54608,3.84131 2.54608,6.14682 v 0 c 0,4.80093 -3.89196,8.6929 -8.69293,8.6929 v 0 c -4.80096,0 -8.69293,-3.89197 -8.69293,-8.6929 z"
       fill-rule="evenodd"
       id="path241" />
    <path
       fill="#c9daf8"
       d="m 615.8635,248.89502 v 0 c 0,-4.80096 3.89197,-8.69292 8.69293,-8.69292 v 0 c 2.30548,0 4.51654,0.91585 6.14679,2.5461 1.63025,1.63023 2.54608,3.84131 2.54608,6.14682 v 0 c 0,4.80096 -3.8919,8.6929 -8.69287,8.6929 v 0 c -4.80096,0 -8.69293,-3.89194 -8.69293,-8.6929 z"
       fill-rule="evenodd"
       id="path243" />
    <path
       stroke="#595959"
       stroke-width="3"
       stroke-linejoin="round"
       stroke-linecap="butt"
       d="m 615.8635,248.89502 v 0 c 0,-4.80096 3.89197,-8.69292 8.69293,-8.69292 v 0 c 2.30548,0 4.51654,0.91585 6.14679,2.5461 1.63025,1.63023 2.54608,3.84131 2.54608,6.14682 v 0 c 0,4.80096 -3.8919,8.6929 -8.69287,8.6929 v 0 c -4.80096,0 -8.69293,-3.89194 -8.69293,-8.6929 z"
       fill-rule="evenodd"
       id="path245" />
    <path
       fill="#c9daf8"
       d="m 659.45404,332.8084 v 0 c 0,-4.80096 3.89197,-8.69293 8.69293,-8.69293 v 0 c 2.30554,0 4.5166,0.91586 6.14685,2.54611 1.63019,1.63022 2.54608,3.84131 2.54608,6.14682 v 0 c 0,4.80096 -3.89196,8.6929 -8.69293,8.6929 v 0 c -4.80096,0 -8.69293,-3.89194 -8.69293,-8.6929 z"
       fill-rule="evenodd"
       id="path247" />
    <path
       stroke="#595959"
       stroke-width="3"
       stroke-linejoin="round"
       stroke-linecap="butt"
       d="m 659.45404,332.8084 v 0 c 0,-4.80096 3.89197,-8.69293 8.69293,-8.69293 v 0 c 2.30554,0 4.5166,0.91586 6.14685,2.54611 1.63019,1.63022 2.54608,3.84131 2.54608,6.14682 v 0 c 0,4.80096 -3.89196,8.6929 -8.69293,8.6929 v 0 c -4.80096,0 -8.69293,-3.89194 -8.69293,-8.6929 z"
       fill-rule="evenodd"
       id="path249" />
    <path
       fill="#c9daf8"
       d="m 681.2493,324.23358 v 0 c 0,-4.80096 3.89197,-8.6929 8.69293,-8.6929 v 0 c 2.30548,0 4.5166,0.91586 6.14679,2.54611 1.63025,1.63022 2.54614,3.84131 2.54614,6.14679 v 0 c 0,4.80096 -3.89196,8.69293 -8.69293,8.69293 v 0 c -4.80096,0 -8.69293,-3.89197 -8.69293,-8.69293 z"
       fill-rule="evenodd"
       id="path251" />
    <path
       stroke="#595959"
       stroke-width="3"
       stroke-linejoin="round"
       stroke-linecap="butt"
       d="m 681.2493,324.23358 v 0 c 0,-4.80096 3.89197,-8.6929 8.69293,-8.6929 v 0 c 2.30548,0 4.5166,0.91586 6.14679,2.54611 1.63025,1.63022 2.54614,3.84131 2.54614,6.14679 v 0 c 0,4.80096 -3.89196,8.69293 -8.69293,8.69293 v 0 c -4.80096,0 -8.69293,-3.89197 -8.69293,-8.69293 z"
       fill-rule="evenodd"
       id="path253" />
    <path
       fill="#c9daf8"
       d="m 588.8163,355.9895 v 0 c 0,-4.80096 3.89197,-8.6929 8.69293,-8.6929 v 0 c 2.30548,0 4.51654,0.91583 6.14679,2.54608 1.63025,1.63025 2.54608,3.84131 2.54608,6.14682 v 0 c 0,4.80096 -3.89196,8.6929 -8.69287,8.6929 v 0 c -4.80096,0 -8.69293,-3.89194 -8.69293,-8.6929 z"
       fill-rule="evenodd"
       id="path255" />
    <path
       stroke="#595959"
       stroke-width="3"
       stroke-linejoin="round"
       stroke-linecap="butt"
       d="m 588.8163,355.9895 v 0 c 0,-4.80096 3.89197,-8.6929 8.69293,-8.6929 v 0 c 2.30548,0 4.51654,0.91583 6.14679,2.54608 1.63025,1.63025 2.54608,3.84131 2.54608,6.14682 v 0 c 0,4.80096 -3.89196,8.6929 -8.69287,8.6929 v 0 c -4.80096,0 -8.69293,-3.89194 -8.69293,-8.6929 z"
       fill-rule="evenodd"
       id="path257" />
    <path
       fill="#c9daf8"
       d="m 610.6116,355.9895 v 0 c 0,-4.80096 3.89191,-8.6929 8.69287,-8.6929 v 0 c 2.30554,0 4.5166,0.91583 6.14685,2.54608 1.63025,1.63025 2.54608,3.84131 2.54608,6.14682 v 0 c 0,4.80096 -3.89196,8.6929 -8.69293,8.6929 v 0 c -4.80096,0 -8.69287,-3.89194 -8.69287,-8.6929 z"
       fill-rule="evenodd"
       id="path259" />
    <path
       stroke="#595959"
       stroke-width="3"
       stroke-linejoin="round"
       stroke-linecap="butt"
       d="m 610.6116,355.9895 v 0 c 0,-4.80096 3.89191,-8.6929 8.69287,-8.6929 v 0 c 2.30554,0 4.5166,0.91583 6.14685,2.54608 1.63025,1.63025 2.54608,3.84131 2.54608,6.14682 v 0 c 0,4.80096 -3.89196,8.6929 -8.69293,8.6929 v 0 c -4.80096,0 -8.69287,-3.89194 -8.69287,-8.6929 z"
       fill-rule="evenodd"
       id="path261" />
    <path
       fill="#c9daf8"
       d="m 640.4068,355.9895 v 0 c 0,-4.80096 3.89197,-8.6929 8.69293,-8.6929 v 0 c 2.30548,0 4.5166,0.91583 6.14685,2.54608 1.63019,1.63025 2.54608,3.84131 2.54608,6.14682 v 0 c 0,4.80096 -3.89196,8.6929 -8.69293,8.6929 v 0 c -4.80096,0 -8.69293,-3.89194 -8.69293,-8.6929 z"
       fill-rule="evenodd"
       id="path263" />
    <path
       stroke="#595959"
       stroke-width="3"
       stroke-linejoin="round"
       stroke-linecap="butt"
       d="m 640.4068,355.9895 v 0 c 0,-4.80096 3.89197,-8.6929 8.69293,-8.6929 v 0 c 2.30548,0 4.5166,0.91583 6.14685,2.54608 1.63019,1.63025 2.54608,3.84131 2.54608,6.14682 v 0 c 0,4.80096 -3.89196,8.6929 -8.69293,8.6929 v 0 c -4.80096,0 -8.69293,-3.89194 -8.69293,-8.6929 z"
       fill-rule="evenodd"
       id="path265" />
    <path
       fill="#000000"
       fill-opacity="0"
       d="m 409.18503,239.45932 c 27.8606,0 37.60306,9.26771 55.72116,18.53543 18.11813,9.26773 44.61188,18.53543 89.22376,18.53543"
       fill-rule="evenodd"
       id="path267" />
    <path
       stroke="#595959"
       stroke-width="3"
       stroke-linejoin="round"
       stroke-linecap="butt"
       d="m 409.18503,239.45932 c 27.86056,0 37.60306,9.26771 55.72119,18.53543 9.05905,4.63385 20.21201,9.26773 34.6767,12.7431 7.23233,1.7377 15.29257,3.18579 24.33303,4.19944 4.52021,0.50683 9.28547,0.90506 14.31476,1.17657 1.25733,0.0679 2.53119,0.12784 3.82184,0.1796 l 1.79749,0.0659"
       fill-rule="evenodd"
       id="path269" />
    <path
       fill="#595959"
       stroke="#595959"
       stroke-width="3"
       stroke-linecap="butt"
       d="m 543.8501,276.35938 -3.42938,3.31723 9.32409,-3.2193 -9.21197,-3.52728 z"
       fill-rule="evenodd"
       id="path271" />
  </g>
  <g
     id="g1225"
     clip-path="url(#clipPath1227)">
    <g
       inkscape:label="Clip"
       id="g1223">
      <rect
         style="fill:none;stroke:#000000;stroke-width:0"
         id="rect1198"
         width="629.78131"
         height="258.02921"
         x="165.64537"
         y="142.60464" />
    </g>
  </g>
  <rect
     style="fill:none;stroke:#000000;stroke-width:0"
     id="rect2056"
     width="30.652021"
     height="5.2421575"
     x="0.63530475"
     y="265.02835" />
  <rect
     style="fill:none;stroke:#000000;stroke-width:0"
     id="rect2058"
     width="629.78131"
     height="258.02921"
     x="165.64537"
     y="142.60464" />
</svg>
